PathFileType	3	(X/Y/Z)	D:\minhoCalibration\240510\subject2_KPNP\preferred\preferred08.trc
DataRate	CameraRate	NumFrames	NumMarkers	Units	OrigDataRate	OrigDataStartFrame	OrigNumFrames
200.0	200.0	21	10	mm	200.0	450	229	
Frame#	Time	Left_Ankle_Outer1			Left_Ankle_Inner1			Left_Knee_Outer1			Left_Knee_Inner1			Left_Wrist1			Right_Wrist1			Right_Knee_Inner1			Right_Knee_Outer1			Right_Ankle_Inner1			Right_Ankle_Outer1			
		X1	Y1	Z1	X2	Y2	Z2	X3	Y3	Z3	X4	Y4	Z4	X5	Y5	Z5	X6	Y6	Z6	X7	Y7	Z7	X8	Y8	Z8	X9	Y9	Z9	X10	Y10	Z10	
450	2.24	-511.20645	94.428185	-789.29205	-530.79187	106.60133	-738.00262	-309.49387	508.27469	-795.43945	-358.49576	497.97388	-709.58826	-339.69193	982.31451	-881.96039	-586.83759	1086.3529	-660.73383	-700.50256	703.60718	-345.22232	-766.41882	784.35132	-359.48499	-768.97595	605.28094	-748.27502	-848.90076	666.25665	-752.14771
451	2.245	-511.91266	95.19014	-789.25958	-530.46698	109.54304	-734.40454	-309.41235	508.78094	-801.15845	-354.56195	498.1062	-712.97705	-344.01877	981.31189	-887.10052	-579.17963	1091.8767	-655.5871	-681.19226	717.31201	-326.19812	-745.35162	799.35114	-339.84534	-770.91022	623.82031	-727.15796	-851.26654	685.94427	-724.07062
452	2.25	-512.6698	96.034714	-789.02289	-529.68433	109.3578	-737.21063	-309.0535	509.13989	-806.88831	-350.35306	498.03638	-716.35559	-348.47296	980.4317	-892.02411	-571.35999	1096.9561	-650.94592	-661.12402	730.98798	-308.87442	-723.9541	814.81866	-318.61938	-773.28693	641.86359	-705.28394	-850.64246	706.07404	-699.71228
453	2.255	-513.50372	97.089188	-788.50537	-528.68274	111.47261	-735.47223	-308.51459	509.29135	-812.61084	-345.75388	497.72104	-720.00818	-353.4917	979.30389	-896.68488	-563.52301	1101.9121	-646.76099	-639.94348	744.90839	-292.64297	-701.39923	831.04559	-298.27301	-775.86884	659.36505	-682.32495	-850.72894	725.5636	-672.49042
454	2.26	-514.18762	98.273956	-787.92535	-528.28119	112.97228	-734.37299	-307.80597	509.49152	-818.26929	-341.13495	497.0676	-724.00641	-359.15485	977.88654	-900.94104	-555.83673	1106.787	-642.98669	-617.8678	758.95734	-277.62903	-676.45673	846.46399	-282.02441	-779.06195	676.40973	-658.39941	-850.77228	745.63867	-643.96375
455	2.265	-514.45258	99.456764	-787.00134	-526.70386	114.34356	-734.466	-307.29776	509.56952	-823.70966	-335.73419	496.68137	-728.14117	-365.29324	976.27997	-904.88611	-548.15338	1111.429	-639.62891	-595.02405	773.01117	-264.04276	-650.19269	862.77014	-266.47937	-782.41284	693.01038	-633.27344	-850.06036	764.68726	-616.67841
456	2.27	-514.34741	100.68141	-786.1358	-525.70691	116.49756	-732.30499	-306.47681	510.09769	-829.32935	-330.36816	496.32703	-732.54358	-372.04718	974.43933	-908.44763	-540.69141	1115.9023	-636.69891	-571.54041	786.90881	-252.1413	-622.83643	879.21393	-252.19395	-786.51245	708.7254	-608.79108	-848.95703	783.94617	-586.28333
457	2.275	-513.85846	101.90095	-785.27332	-523.89789	118.3201	-730.8587	-306.89767	510.27118	-834.22784	-325.22925	496.16367	-737.24158	-379.18506	972.35919	-911.8504	-533.01019	1120.1799	-633.93927	-547.86554	800.66211	-241.70726	-595.33716	895.56842	-238.87358	-789.50128	725.27698	-581.61298	-847.47498	802.76318	-556.33612
458	2.28	-513.06085	103.0726	-784.3869	-521.39337	120.20217	-729.67377	-307.60684	510.72055	-838.86407	-320.46609	496.17618	-742.05212	-386.42581	970.2254	-913.85773	-525.32294	1124.3066	-631.43964	-523.82434	814.12701	-233.04881	-566.66815	911.18689	-228.98578	-793.45917	741.00037	-552.04541	-845.69666	821.41602	-524.50775
459	2.285	-511.9964	104.17481	-783.53418	-519.27496	121.38611	-729.04901	-308.72693	511.50589	-843.05219	-316.32913	496.55469	-746.78705	-394.31058	967.30939	-915.58521	-518.21027	1128.3898	-629.17175	-499.64026	827.15662	-226.09306	-537.80249	925.67932	-221.67763	-796.83582	756.34839	-520.75366	-843.07501	839.58508	-491.65674
460	2.29	-510.97263	105.1966	-782.66949	-517.50305	123.13983	-727.18054	-310.45764	512.33667	-846.49432	-313.21671	497.2536	-751.0036	-403.34805	964.20923	-917.28284	-510.80585	1132.1959	-627.39966	-476.01294	839.93561	-220.47209	-508.8511	939.47772	-217.01845	-800.34729	771.15234	-486.06381	-839.91119	857.4386	-456.74707
461	2.295	-510.03885	106.19815	-781.95587	-516.00085	123.68101	-726.97992	-312.55814	513.37128	-849.32166	-311.22495	498.30682	-754.40735	-411.46292	961.06885	-917.90735	-503.32697	1135.3593	-626.15601	-452.6015	852.07623	-216.54044	-481.258	952.2594	-213.3744	-801.63202	786.68292	-450.48087	-835.37421	875.02924	-420.71368
462	2.3	-509.44073	107.12628	-781.2074	-514.45374	123.97954	-727.61157	-314.92285	514.55817	-851.41229	-310.44113	499.65747	-756.72577	-419.88669	957.91016	-917.49866	-496.99265	1138.2876	-625.16559	-429.69791	863.67096	-214.1559	-453.37	964.28174	-212.71677	-801.66479	801.83325	-411.34863	-829.24872	892.44879	-382.88837
463	2.305	-509.14914	107.65544	-779.96716	-513.73322	124.76777	-726.96033	-317.34619	515.75287	-852.90802	-310.67868	501.16629	-758.0097	-428.46875	954.34607	-916.72418	-490.45975	1141.0588	-624.38367	-407.50296	874.4679	-213.28203	-426.94601	974.92572	-213.65797	-799.24927	817.20911	-370.34845	-821.26239	909.57367	-343.44565
464	2.31	-509.33139	108.38151	-779.13928	-513.30328	125.56322	-726.1416	-319.94916	517.00684	-853.30212	-311.69696	502.82086	-758.29138	-436.88266	950.83105	-915.57965	-484.27856	1143.5021	-623.89758	-386.54532	884.57654	-213.42891	-402.49753	984.28888	-216.00777	-794.23016	833.01416	-327.36526	-810.91534	926.84491	-302.47681
465	2.315	-510.08963	108.92413	-778.28259	-513.11072	126.70013	-723.94348	-322.48206	518.18304	-853.2724	-313.44141	504.06247	-757.54901	-445.11859	947.3833	-913.60156	-478.20248	1145.4404	-623.90515	-366.85205	893.58057	-214.7244	-378.94363	992.49628	-220.40051	-785.80206	848.58325	-281.78931	-797.82196	943.65399	-260.14941
466	2.32	-510.75751	108.96092	-776.6311	-513.87378	126.15154	-723.53119	-325.44806	519.04932	-852.14691	-315.86523	505.43738	-756.2821	-452.61121	944.50031	-911.38751	-472.9173	1147.6122	-623.87274	-348.69406	901.89642	-217.56985	-357.86172	999.32635	-225.7088	-773.71057	864.74591	-235.62325	-781.63605	960.5824	-216.67203
467	2.325	-511.85669	108.82387	-774.82037	-514.81384	125.82648	-721.77155	-327.87585	520.46472	-850.62903	-319.20029	506.23233	-754.14911	-459.49591	941.85681	-909.50677	-467.70584	1149.6008	-624.42834	-332.38443	909.01007	-220.71695	-339.15955	1004.9963	-231.77687	-757.59467	880.91632	-188.48128	-761.96442	977.31909	-172.70097
468	2.33	-513.18994	108.68866	-772.64661	-515.62512	126.01674	-719.08728	-330.20941	521.7215	-848.66125	-322.66275	506.96252	-751.02142	-466.28162	939.19092	-906.06073	-463.18356	1151.3965	-624.93079	-318.17493	915.11169	-224.33633	-323.28012	1009.7253	-237.96968	-737.81097	897.46631	-139.61746	-738.50861	994.19922	-127.88145
469	2.335	-514.82837	108.44835	-769.88263	-516.97668	125.92508	-715.64081	-332.97055	522.60437	-845.72607	-326.56332	507.37619	-747.63837	-471.84302	937.12451	-903.60651	-459.1748	1153.1711	-625.69122	-306.33841	920.38196	-228.37711	-309.89035	1013.5383	-244.28664	-712.5437	913.26971	-92.244881	-711.30963	1010.8051	-83.165665
470	2.34	-516.6745	108.53092	-766.79175	-518.41339	125.79964	-711.79272	-335.01855	523.45618	-842.89374	-330.4136	507.65265	-743.91956	-476.3963	935.65021	-901.12408	-455.82697	1154.9409	-626.6615	-297.03729	924.91431	-232.40686	-299.45648	1016.7136	-249.91801	-692.9223	933.87091	-52.022388	-679.57495	1026.802	-39.717308
